<?xml version="1.0" standalone="no"?><!DOCTYPE svg PUBLIC "-//W3C//DTD SVG 1.1//EN" "http://www.w3.org/Graphics/SVG/1.1/DTD/svg11.dtd"><svg width="200" height="200" viewBox="0 0 200 200" version="1.1" xmlns="http://www.w3.org/2000/svg" xmlns:xlink="http://www.w3.org/1999/xlink"><defs><style type="text/css"><![CDATA[

]]></style></defs><g class="transform-group"><g transform="scale(0.1953125, 0.1953125)"><path d="M440.405333 876.303059C199.68502 875.866353 4.60298 680.628706 4.838902 440.385255 5.074824 198.836706 200.769255 4.191373 442.87498 4.703373 682.074353 5.210353 876.80502 201.155765 876.423529 440.967529 876.03702 681.627608 680.618667 876.739765 440.405333 876.303059L440.405333 876.303059ZM803.910275 441.077961C804.462431 241.111843 642.354196 78.325961 441.660235 77.301961 241.603765 76.28298 78.496627 238.757647 77.648314 439.903373 76.80502 639.081412 239.36 803.061961 438.231843 803.639216 640.145569 804.22651 803.353098 642.414431 803.910275 441.077961L803.910275 441.077961ZM840.227137 803.719529C850.356706 803.639216 858.905098 807.398902 865.942588 814.421333 914.401882 862.790275 962.916392 911.10902 1011.144784 959.703843 1025.390431 974.059922 1024.988863 996.512627 1011.189961 1010.56251 997.350902 1024.652549 974.762667 1025.495843 960.416627 1011.290353 911.410196 962.760784 862.659765 913.965176 814.090039 864.998902 802.961569 853.780078 800.747922 839.845647 807.04251 825.359059 813.226667 811.128471 824.771765 804.176314 840.227137 803.719529L840.227137 803.719529Z" fill="#272636"></path></g></g></svg>