<svg id="图层_1" data-name="图层 1" xmlns="http://www.w3.org/2000/svg" viewBox="0 0 80 80"><defs><style>.cls-1{fill:#7bb245;}</style></defs><title>LOGOS</title><path class="cls-1" d="M79.14,56.63L62.81,40.28,77.58,25.51a8.37,8.37,0,0,0,1.8-9C77.59,12.11,69.73,5.95,66.2,2.42a8.34,8.34,0,0,0-11.52-.17l-15,14.94L23.37,0.85a2.92,2.92,0,0,0-4.12,0L0.86,19.26a2.9,2.9,0,0,0,0,4.11L17.19,39.72,0.87,56.07a2.89,2.89,0,0,0-.86,2C0,64.43,0,70.71,0,77a2.93,2.93,0,0,0,2.91,3H21.82a3,3,0,0,0,2.13-.85L40.28,62.81,56.57,79.09l0.06,0.05a2.91,2.91,0,0,0,4.11,0L79.14,60.74A2.9,2.9,0,0,0,79.14,56.63ZM58.7,6.43a2.49,2.49,0,0,1,3.39.1l11.4,11.38a2.53,2.53,0,0,1,0,3.49l-5.19,5.17L65,23.31l0,0,0,0-0.1-.1,0,0-7.95-7.95,0,0,0,0,0,0,0,0,0,0,0,0-3.27-3.27Zm2.53,18L16.47,69.21,10.8,63.53,55.56,18.77ZM7,21.32L21.31,7,24.09,9.8,19,14.89a1.74,1.74,0,0,0,2.47,2.47l5.09-5.1,4.12,4.12L28.1,19a1.74,1.74,0,1,0,2.47,2.47l2.58-2.58,2.47,2.46L21.3,35.6ZM51,14.18L53.1,16.3,8.33,61.07,6.2,58.93Zm-45.15,60V63.47l10.7,10.71H5.81Zm15.25-.38-2.13-2.14L63.7,26.91,65.82,29ZM58.69,73L44.4,58.69,58.7,44.4l2.72,2.74L58.85,49.7a1.74,1.74,0,1,0,2.47,2.46l2.57-2.57L68,53.71l-5.09,5.09a1.74,1.74,0,0,0,2.46,2.47l5.1-5.09L73,58.68Z"/></svg>