<svg id="图层_1" data-name="图层 1" xmlns="http://www.w3.org/2000/svg" viewBox="0 0 80 80"><defs><style>.cls-1{fill:#7bb245;}.cls-2{fill:#b4222d;}.cls-3{fill:#c72350;}.cls-4{fill:#f3b622;}.cls-5{fill:#e25128;}.cls-6{fill:#676868;opacity:0.2;}.cls-7{fill:#389bce;}</style></defs><title>LOGOS</title><polygon class="cls-1" points="33.41 44.52 19.13 79 19.13 79 67.89 58.8 33.41 44.52"/><polygon class="cls-2" points="30.96 38.61 46.95 0 0 0 0 25.78 30.96 38.61"/><polygon class="cls-3" points="0 80 14.18 80 29.54 42.91 0 30.68 0 80"/><polygon class="cls-4" points="80 15.68 50.43 3.43 35.02 40.65 72.23 56.06 80 37.3 80 15.68"/><polygon class="cls-5" points="80 11.14 80 0 53.1 0 80 11.14"/><polygon class="cls-6" points="80 80 80 48.26 66.85 80 80 80"/><polygon class="cls-7" points="27.66 80 62.32 80 69.49 62.67 69.49 62.67 27.66 80"/></svg>