<svg id="图层_1" data-name="图层 1" xmlns="http://www.w3.org/2000/svg" viewBox="0 0 80 80"><defs><style>.cls-1{fill:#389bce;}</style></defs><title>LOGOS</title><path class="cls-1" d="M63.33,29.61a16.3,16.3,0,0,0-2.31.18,20.31,20.31,0,0,0-35.75-3.68A13.43,13.43,0,0,0,23.4,26a12.79,12.79,0,0,0-12.71,11.6,12.76,12.76,0,0,0,2.08,25.34l50.57,0.06A16.67,16.67,0,0,0,63.33,29.61ZM26.22,31.51a3.91,3.91,0,0,1,5.53,0,11.72,11.72,0,0,0,16.54,0,3.92,3.92,0,1,1,5.52,5.55A19.56,19.56,0,0,1,26.2,37,3.9,3.9,0,0,1,26.22,31.51ZM63.85,47.18a33.78,33.78,0,0,1-47.72-.09,3.92,3.92,0,0,1,5.56-5.54,25.92,25.92,0,0,0,36.64.07A3.91,3.91,0,1,1,63.85,47.18Z"/></svg>