<svg id="图层_1" data-name="图层 1" xmlns="http://www.w3.org/2000/svg" viewBox="0 0 80 80"><defs><style>.cls-1{fill:#7bb245;}</style></defs><title>LOGOS</title><polygon class="cls-1" points="35.08 49.13 35.08 11.34 16.18 30.24 16.18 30.24 35.08 49.13"/><polygon class="cls-1" points="25.63 78.74 35.08 69.29 35.08 50.39 25.63 59.84 25.63 78.74"/><polygon class="cls-1" points="33.82 10.71 14.92 10.71 14.92 29.61 33.82 10.71"/><polygon class="cls-1" points="14.92 70.55 24.37 80 24.37 80 24.37 61.1 14.92 70.55"/><polygon class="cls-1" points="25 0 15.55 9.45 15.55 9.45 34.45 9.45 25 0"/><polygon class="cls-1" points="14.92 30.87 14.92 68.66 33.82 49.76 33.82 49.76 14.92 30.87"/><path class="cls-1" d="M55.63,20.79l-9.45,9.45,9.45,9.45,9.45-9.45Zm2.1,11.55v4.2h-4.2v-4.2h-4.2v-4.2h4.2v-4.2h4.2v4.2h4.2v4.2h-4.2Z"/></svg>