<svg id="图层_1" data-name="图层 1" xmlns="http://www.w3.org/2000/svg" viewBox="0 0 80 80"><defs><style>.cls-1{fill:#b4222d;}</style></defs><title>LOGOS</title><rect class="cls-1" x="45.17" y="41.67" width="18.4" height="18.4" transform="translate(-20.04 53.34) rotate(-45)"/><polygon class="cls-1" points="12.22 21.52 40 49.3 53.68 35.62 67.78 21.52 12.22 21.52"/><polygon class="cls-1" points="67.78 48.55 67.78 24.45 55.72 36.5 67.78 48.55"/><polygon class="cls-1" points="12.22 77.29 23.32 66.19 38.65 50.87 12.22 24.45 12.22 77.29"/><polygon class="cls-1" points="27.95 64.28 52.05 64.28 40 52.22 27.94 64.28 27.95 64.28"/><polygon class="cls-1" points="67.78 80 67.78 80 67.78 53.18 40.96 80 67.78 80"/><polygon class="cls-1" points="52.05 66.19 26.03 66.19 26.03 66.19 12.22 80 38.25 80 52.06 66.19 52.05 66.19"/><path class="cls-1" d="M59.7,19.7H56.07c0-7.76-8.31-15.07-16.07-15.07S23.93,11.94,23.93,19.7H20.3A19.7,19.7,0,0,1,59.7,19.7Z"/></svg>