<svg id="图层_1" data-name="图层 1" xmlns="http://www.w3.org/2000/svg" viewBox="0 0 80 80"><defs><style>.cls-1{fill:#389bce;}</style></defs><title>LOGOS</title><path class="cls-1" d="M45,70A35,35,0,0,1,42.59.09C41.73,0,40.87,0,40,0A40,40,0,1,0,80,40c0-.87,0-1.73-0.09-2.59A35,35,0,0,1,45,70Z"/><path class="cls-1" d="M79.91,37.41C80,36.62,80,35.81,80,35A35,35,0,0,0,45,0c-0.81,0-1.62,0-2.41.09A40,40,0,0,1,79.91,37.41Z"/><path class="cls-1" d="M50.13,51.75A21.87,21.87,0,0,1,48.62,8.06C48.08,8,47.54,8,47,8A25,25,0,1,0,72,33c0-.54,0-1.08-0.06-1.62A21.87,21.87,0,0,1,50.13,51.75Z"/><path class="cls-1" d="M71.94,31.38c0-.5.06-1,0.06-1.51A21.88,21.88,0,0,0,50.13,8c-0.51,0-1,0-1.51.06A25,25,0,0,1,71.94,31.38Z"/></svg>