<svg id="图层_1" data-name="图层 1" xmlns="http://www.w3.org/2000/svg" viewBox="0 0 80 80"><defs><style>.cls-1{fill:#c72350;}</style></defs><title>LOGOS</title><path class="cls-1" d="M15.53,56.86a1.88,1.88,0,0,1,0-3.75h7.23l8.67-18a13.3,13.3,0,0,1-1.64-1.4h0a14.43,14.43,0,0,1,0-20.39L30,13.21a14.44,14.44,0,0,1,6.9-3.72V3.12a3.12,3.12,0,0,1,6.24,0V9.48a14.44,14.44,0,0,1,7.07,3.89h0a14.43,14.43,0,0,1,0,20.39L50,33.91a14.1,14.1,0,0,1-1.47,1.24l8.67,18h7.22a1.88,1.88,0,0,1,0,3.75H59l6.47,13.4a3.12,3.12,0,0,1,0,2.76l0.73,1.5,1.34,2.8a1.87,1.87,0,1,1-3.36,1.63l-1.36-2.8-0.72-1.47A3.13,3.13,0,0,1,59.88,73L52.09,56.86h-9v2.39a3.13,3.13,0,0,1-6.26,0V56.86h-9L20.08,73a3.09,3.09,0,0,1-2.19,1.7l-0.71,1.48-1.35,2.8a1.87,1.87,0,1,1-3.37-1.63l1.35-2.8,0.71-1.47a3.11,3.11,0,0,1,0-2.8L21,56.86H15.53ZM36.86,53.1V50.71a3.13,3.13,0,0,1,6.26,0V53.1h7.16L42.83,37.69a14.71,14.71,0,0,1-5.69,0L29.68,53.1h7.18Zm8.9-35.33a8.2,8.2,0,0,0-11.42-.13l-0.13.14a8.17,8.17,0,0,0,0,11.55h0a8.24,8.24,0,0,0,9,1.74l0.07,0h0a8.2,8.2,0,0,0,2.37-1.58l0.13-.14a8.16,8.16,0,0,0,0-11.55h0Z"/></svg>