<svg id="图层_1" data-name="图层 1" xmlns="http://www.w3.org/2000/svg" viewBox="0 0 80 80"><defs><style>.cls-1{fill:#e25128;}</style></defs><title>LOGOS</title><path class="cls-1" d="M71.32,37.81l1.35,0q0.93,0,1.42,0,4.9,0,4.9-3.64V15.11a3.43,3.43,0,0,0-3.58-3.58H58.52v47.4L50.13,11.4H45.71L37.4,58H26.23V38.36H37.06v-4H26.23V15.49h11.9v-4H18.35L11.48,36.78,4.55,11.53H0Q0,11.66,6.06,32H0.52v3.77H7.19L9,41.65H0.52v3.77H9.19V62h4.48V45.42h8.07V62H41l1.77-11.22h10L54.61,62H63V15.49H74.52V34.07h-8l-0.61.9L74.06,64.2H0v4.4H80C77.12,60.52,74.23,45.85,71.32,37.81ZM21.74,41.65H13.87l1.77-5.87h6.1v5.87Zm0-9.64h-5l5-16.47V32Zm21.65,14.8,4.45-27.35,4.42,27.35H43.39Z"/></svg>