<svg id="图层_1" data-name="图层 1" xmlns="http://www.w3.org/2000/svg" viewBox="0 0 80 80"><defs><style>.cls-1{fill:#389bce;}</style></defs><title>LOGOS</title><path class="cls-1" d="M64,61.87h0.08A9.81,9.81,0,0,0,71,59h0A9.83,9.83,0,0,0,65.7,42.34a3.07,3.07,0,0,1-2.56-3h0A21.18,21.18,0,0,0,22.48,31a3.07,3.07,0,0,1-2.76,1.86,14.55,14.55,0,0,0-9.32,24.8h0A14.51,14.51,0,0,0,20.7,61.87H64ZM15.72,49.06a2.56,2.56,0,0,1,3.63-3.63l5.06,5.06V35.61a2.57,2.57,0,0,1,5.14,0V50.49l5.06-5.06a2.56,2.56,0,0,1,3.62,3.63l-9.39,9.39,0,0-0.1.08v0a2.21,2.21,0,0,1-.31.23l-0.16.1,0,0a2.41,2.41,0,0,1-1.21.31,2.47,2.47,0,0,1-1.22-.31l0,0-0.16-.1a3.63,3.63,0,0,1-.31-0.23v0l-0.1-.08,0,0-9.39-9.39h0Zm23.13-9.39a2.57,2.57,0,0,1-3.63,0,2.6,2.6,0,0,1,0-3.63l9.39-9.39,0,0,0.1-.08,0,0a1.93,1.93,0,0,1,.29-0.22l0.16-.1,0,0a2.58,2.58,0,0,1,2.43,0l0,0,0.16,0.1a2.1,2.1,0,0,1,.31.22l0,0L48.3,26.6l0,0L57.74,36a2.56,2.56,0,1,1-3.63,3.63l-5.06-5.06V55.5a2.57,2.57,0,0,1-5.14,0V34.61l-5.06,5.06h0ZM75.31,63.34A16,16,0,0,1,64.12,68H20.7A20.58,20.58,0,0,1,6.07,62h0A20.69,20.69,0,0,1,17.62,26.87a27.33,27.33,0,0,1,51.56,10,16,16,0,0,1,6.14,26.43h0Z"/></svg>