<?xml version="1.0" encoding="iso-8859-1"?>
<!-- Generator: Adobe Illustrator 17.0.0, SVG Export Plug-In . SVG Version: 6.00 Build 0)  -->
<!DOCTYPE svg PUBLIC "-//W3C//DTD SVG 1.1//EN" "http://www.w3.org/Graphics/SVG/1.1/DTD/svg11.dtd">
<svg version="1.1" id="&#x56FE;&#x5C42;_1" xmlns="http://www.w3.org/2000/svg" xmlns:xlink="http://www.w3.org/1999/xlink" x="0px"
	 y="0px" width="512px" height="512px" viewBox="0 0 512 512" style="enable-background:new 0 0 512 512;" xml:space="preserve">
<g>
	<defs>
		<circle id="SVGID_1_" cx="256" cy="256" r="256"/>
	</defs>
	<clipPath id="SVGID_2_">
		<use xlink:href="#SVGID_1_"  style="overflow:visible;"/>
	</clipPath>
	<g style="clip-path:url(#SVGID_2_);">
		
			<rect x="294.244" y="120.247" transform="matrix(-0.9239 -0.3826 0.3826 -0.9239 651.9391 541.2656)" style="fill:#FDBB11;" width="171.106" height="171.105"/>
		<polygon style="fill:#BE1E2D;" points="-86.644,103.681 250.797,243.443 319.629,77.254 390.559,-94 		"/>
		<polygon style="fill:#EF5125;" points="486.756,138.22 400.963,-68.883 340.308,77.564 		"/>
		<polygon style="fill:#D41C53;" points="111.801,582.73 167.637,447.918 244.746,261.744 -76.24,128.798 		"/>
		<polygon style="fill:#7FBA42;" points="200.547,415.007 407.65,329.215 261.201,268.56 200.546,415.007 		"/>
		<polygon style="opacity:0.5;fill:#676767;" points="598.643,408.319 598.644,408.319 503.212,177.946 368.27,503.751 		"/>
		<polygon style="fill:#33A5DD;" points="414.466,345.669 190.909,438.278 190.907,438.279 121.441,606 345.001,513.39 
			414.468,345.669 		"/>
	</g>
</g>
</svg>
