<?xml version="1.0" encoding="iso-8859-1"?>
<!-- Generator: Adobe Illustrator 17.0.0, SVG Export Plug-In . SVG Version: 6.00 Build 0)  -->
<!DOCTYPE svg PUBLIC "-//W3C//DTD SVG 1.1//EN" "http://www.w3.org/Graphics/SVG/1.1/DTD/svg11.dtd">
<svg version="1.1" id="&#x56FE;&#x5C42;_1" xmlns="http://www.w3.org/2000/svg" xmlns:xlink="http://www.w3.org/1999/xlink" x="0px"
	 y="0px" width="180px" height="180px" viewBox="0 0 180 180" style="enable-background:new 0 0 180 180;" xml:space="preserve">
<g style="opacity:0.1;">
	
		<rect x="105.025" y="63.551" transform="matrix(-0.7071 -0.7071 0.7071 -0.7071 161.1136 247.3603)" style="fill:#FFFFFF;" width="53.524" height="53.523"/>
	<polygon style="fill:#FFFFFF;" points="9.213,4.961 90,85.748 129.787,45.961 170.787,4.961 	"/>
	<polygon style="fill:#FFFFFF;" points="170.787,83.587 170.787,13.465 135.726,48.526 	"/>
	<polygon style="fill:#FFFFFF;" points="9.213,167.16 41.488,134.885 86.06,90.313 9.213,13.465 	"/>
	<polygon style="fill:#FFFFFF;" points="54.939,129.313 125.061,129.313 89.999,94.252 54.938,129.313 	"/>
	<polygon style="opacity:0.2;fill:#FFFFFF;" points="170.787,175.039 170.787,175.039 170.787,97.038 92.786,175.039 	"/>
	<polygon style="fill:#FFFFFF;" points="125.061,134.885 49.367,134.885 49.367,134.885 9.213,175.039 84.907,175.039 
		125.062,134.885 	"/>
</g>
</svg>
